<svg width="249" height="142" viewBox="0 0 249 142" fill="none" xmlns="http://www.w3.org/2000/svg">
<g filter="url(#filter0_d)">
<rect x="21" y="16" width="100" height="84" rx="10" fill="url(#paint0_linear)"/>
<path d="M81.56 93.024C81.1067 92.9787 80.7667 92.7067 80.54 92.208C80.4947 92.1627 80.472 92.0493 80.472 91.868C80.4267 91.5053 80.3587 91.1427 80.268 90.78C80.2227 90.4173 80.2227 90.0547 80.268 89.692V89.352C80.2227 88.944 80.2 88.536 80.2 88.128C80.2 87.72 80.1773 87.3347 80.132 86.972C80.0413 86.2013 79.7693 85.612 79.316 85.204L78.704 84.592C78.4773 84.32 78.1827 84.2293 77.82 84.32C77.548 84.3653 77.276 84.388 77.004 84.388C76.7773 84.388 76.528 84.3653 76.256 84.32C76.0747 84.32 75.8707 84.3427 75.644 84.388C75.4627 84.388 75.2587 84.388 75.032 84.388C74.8507 84.388 74.6467 84.388 74.42 84.388C74.2387 84.3427 74.0573 84.3427 73.876 84.388C73.6947 84.4333 73.5133 84.456 73.332 84.456C73.196 84.456 73.06 84.456 72.924 84.456H70.612C70.1133 84.456 69.592 84.524 69.048 84.66L67.416 85.068C66.872 85.2493 66.328 85.3853 65.784 85.476C65.6027 85.5213 65.4213 85.5667 65.24 85.612C65.0587 85.6573 64.8773 85.7253 64.696 85.816C64.016 86.1333 63.3587 86.3147 62.724 86.36C62.316 86.4507 62.0213 86.632 61.84 86.904L61.5 87.312C61.4093 87.3573 61.3187 87.4027 61.228 87.448C61.1373 87.5387 61.0467 87.6293 60.956 87.72C60.6387 87.9013 60.2987 87.9013 59.936 87.72C59.528 87.4933 59.2787 87.244 59.188 86.972C59.188 86.9267 59.1653 86.8813 59.12 86.836C59.12 86.836 59.12 86.8133 59.12 86.768C58.8027 85.9973 58.2813 85.3173 57.556 84.728C57.3747 84.592 57.216 84.4333 57.08 84.252C57.0347 84.116 56.9667 84.0027 56.876 83.912C56.7853 83.776 56.6947 83.6627 56.604 83.572L56.196 82.96C56.0147 82.6427 55.9467 82.28 55.992 81.872C56.0373 81.6453 56.06 81.4187 56.06 81.192C56.1053 80.92 56.1507 80.6707 56.196 80.444V80.036C56.196 79.5373 56.196 79.0387 56.196 78.54C56.196 77.996 56.2187 77.4973 56.264 77.044V76.364C56.3547 76.1827 56.3773 76.024 56.332 75.888C56.332 75.7067 56.332 75.5253 56.332 75.344C56.3773 74.7547 56.3773 74.188 56.332 73.644C56.332 73.0547 56.3547 72.4653 56.4 71.876L56.604 68.816C56.6493 68.3173 56.672 67.8413 56.672 67.388C56.7173 66.9347 56.74 66.4813 56.74 66.028V65.824C56.8307 65.28 56.876 64.736 56.876 64.192C56.876 63.648 56.876 63.0813 56.876 62.492V57.8C56.8307 57.3013 56.7853 56.8027 56.74 56.304C56.74 55.8053 56.74 55.3067 56.74 54.808C56.74 54.264 56.7173 53.72 56.672 53.176C56.6267 52.5867 56.5587 51.9973 56.468 51.408C56.4227 51.0453 56.3547 50.66 56.264 50.252C56.2187 49.844 56.196 49.436 56.196 49.028C56.196 48.9373 56.1733 48.8467 56.128 48.756C56.128 48.6653 56.128 48.5747 56.128 48.484C55.856 47.26 55.72 46.0133 55.72 44.744V41.888C55.72 41.5707 55.72 41.276 55.72 41.004C55.7653 40.6867 55.8107 40.3693 55.856 40.052C55.9467 39.508 56.128 39.1 56.4 38.828L56.74 38.42C57.012 38.0573 57.3293 37.808 57.692 37.672C58.0547 37.4907 58.44 37.3773 58.848 37.332H59.324C60.004 37.332 60.548 37.5813 60.956 38.08C61.0467 38.1253 61.1147 38.1707 61.16 38.216C61.2053 38.2613 61.2507 38.3067 61.296 38.352C61.5227 38.5333 61.6587 38.7373 61.704 38.964C61.9307 39.4173 62.044 39.712 62.044 39.848C62.0893 39.984 62.112 40.3013 62.112 40.8V41.276C62.112 41.5933 62.112 41.9107 62.112 42.228C62.112 42.5 62.1347 42.7947 62.18 43.112C62.2253 43.2027 62.248 43.3387 62.248 43.52C62.248 43.8373 62.248 44.1547 62.248 44.472C62.2933 44.7893 62.3387 45.1067 62.384 45.424C62.4293 45.8773 62.4747 46.3307 62.52 46.784C62.5653 47.192 62.588 47.6453 62.588 48.144C62.588 48.2347 62.588 48.348 62.588 48.484C62.6333 48.5747 62.656 48.6653 62.656 48.756C62.656 48.8013 62.656 48.8693 62.656 48.96C62.7013 49.0053 62.724 49.0733 62.724 49.164L62.928 52.632C62.9733 52.8587 62.996 53.108 62.996 53.38C62.996 53.6067 62.996 53.856 62.996 54.128C63.0413 54.1733 63.064 54.2867 63.064 54.468C63.0187 54.6947 62.996 54.944 62.996 55.216C62.996 55.4427 63.0187 55.6693 63.064 55.896V60.384C63.0187 60.656 63.0187 60.928 63.064 61.2V61.608C63.0187 61.9707 62.996 62.356 62.996 62.764C62.996 63.1267 62.9733 63.512 62.928 63.92C62.928 64.2373 62.928 64.5773 62.928 64.94C62.928 65.2573 62.9053 65.5973 62.86 65.96C62.8147 66.1413 62.792 66.3453 62.792 66.572C62.792 66.7987 62.792 67.0253 62.792 67.252C62.792 67.4333 62.7693 67.66 62.724 67.932C62.724 68.1587 62.7013 68.3853 62.656 68.612V68.816C62.6107 69.2693 62.5653 69.7227 62.52 70.176C62.52 70.6293 62.4973 71.1053 62.452 71.604C62.4067 71.8307 62.384 72.08 62.384 72.352C62.384 72.624 62.3613 72.896 62.316 73.168C62.2707 73.3493 62.248 73.576 62.248 73.848C62.248 74.0747 62.248 74.3013 62.248 74.528C62.248 74.7547 62.2253 74.9813 62.18 75.208C62.1347 75.7067 62.112 76.2053 62.112 76.704C62.112 77.1573 62.112 77.6333 62.112 78.132V78.2C62.2027 78.4267 62.316 78.54 62.452 78.54L63.812 78.744C64.9 78.88 65.9653 78.948 67.008 78.948C67.28 78.948 67.5067 78.9253 67.688 78.88C67.9147 78.8347 68.164 78.812 68.436 78.812C68.708 78.812 68.9573 78.7893 69.184 78.744H71.088C71.4053 78.744 71.7227 78.7213 72.04 78.676C72.3573 78.5853 72.6747 78.5173 72.992 78.472H73.332C73.8307 78.472 74.3293 78.4493 74.828 78.404C75.3267 78.3133 75.8253 78.268 76.324 78.268H78.568C79.2027 78.268 79.7467 78.132 80.2 77.86C80.5627 77.724 80.9027 77.6333 81.22 77.588C81.5827 77.5427 81.9453 77.4973 82.308 77.452C82.852 77.452 83.328 77.588 83.736 77.86C84.6427 78.404 85.232 79.152 85.504 80.104C85.5947 80.4213 85.64 80.7613 85.64 81.124C85.6853 81.4867 85.6853 81.8493 85.64 82.212C85.5947 82.62 85.504 83.0053 85.368 83.368C85.232 83.6853 85.0507 84.0253 84.824 84.388L84.212 85.272C83.94 85.7707 83.736 86.2693 83.6 86.768C83.5547 87.176 83.4867 87.5613 83.396 87.924C83.3053 88.332 83.26 88.74 83.26 89.148C83.26 89.3293 83.2373 89.5107 83.192 89.692C83.192 89.8733 83.192 90.0547 83.192 90.236C83.1467 90.4173 83.124 90.576 83.124 90.712C83.124 90.848 83.124 91.0067 83.124 91.188C83.124 91.5507 83.0107 91.9587 82.784 92.412C82.512 92.8653 82.104 93.0693 81.56 93.024Z" fill="#407AEB"/>
</g>
<defs>
<filter id="filter0_d" x="0" y="0" width="158" height="142" filterUnits="userSpaceOnUse" color-interpolation-filters="sRGB">
<feFlood flood-opacity="0" result="BackgroundImageFix"/>
<feColorMatrix in="SourceAlpha" type="matrix" values="0 0 0 0 0 0 0 0 0 0 0 0 0 0 0 0 0 0 127 0"/>
<feOffset dx="8" dy="13"/>
<feGaussianBlur stdDeviation="14.5"/>
<feColorMatrix type="matrix" values="0 0 0 0 0 0 0 0 0 0 0 0 0 0 0 0 0 0 0.18 0"/>
<feBlend mode="normal" in2="BackgroundImageFix" result="effect1_dropShadow"/>
<feBlend mode="normal" in="SourceGraphic" in2="effect1_dropShadow" result="shape"/>
</filter>
<linearGradient id="paint0_linear" x1="121" y1="16" x2="21" y2="100" gradientUnits="userSpaceOnUse">
<stop stop-color="#B7B6EB"/>
<stop offset="1" stop-color="white" stop-opacity="0"/>
</linearGradient>
</defs>
</svg>
